<svg width="100" height="94" viewBox="0 0 100 94" fill="none" xmlns="http://www.w3.org/2000/svg">
<path d="M98.959 53.0213C98.713 52.5333 98.104 52.2883 97.615 52.1663C94.802 52.1663 70.619 51.1903 70.619 23.0943C70.619 22.2403 69.887 21.5073 69.029 21.5073C68.177 21.5073 67.444 22.2403 67.444 23.0943C67.444 51.1903 43.258 52.1663 40.57 52.1663C40.204 52.1663 39.837 52.2883 39.593 52.5333C39.348 52.6553 39.225 52.8983 39.105 53.0213C38.86 53.5103 38.86 54.1203 39.105 54.6093C39.349 55.0993 39.959 55.4643 40.57 55.4643C40.57 55.4643 40.57 55.4643 40.692 55.4643C43.502 55.4643 67.566 56.4423 67.566 84.5353C67.566 85.3893 68.298 86.1233 69.155 86.1233C70.01 86.1233 70.741 85.3893 70.741 84.5353C70.741 56.5633 94.804 55.4643 97.616 55.4643C98.226 55.4643 98.714 55.0993 99.082 54.6093C99.324 54.1203 99.324 53.5113 98.959 53.0213Z" fill="white"/>
<path d="M34.829 73.0553C33.363 73.0553 20.171 72.5663 20.171 57.1753C20.171 56.3193 19.438 55.5863 18.584 55.5863C17.729 55.5863 16.996 56.3183 16.996 57.1753C16.996 72.5663 3.804 73.0553 2.338 73.0553C2.216 73.0553 2.216 73.0553 2.216 73.0553C1.361 73.1773 0.75 73.7863 0.75 74.6423C0.75 75.4983 1.483 76.2313 2.338 76.2313C3.926 76.2313 16.996 76.7183 16.996 92.1093C16.996 92.9633 17.729 93.6983 18.584 93.6983C19.317 93.9423 20.05 93.2103 20.05 92.2323C20.05 76.8403 33.242 76.3523 34.708 76.3523H34.83C35.685 76.3523 36.418 75.6203 36.418 74.6423C36.417 73.7863 35.684 73.0553 34.829 73.0553Z" fill="white"/>
<path d="M48.875 21.2633C49.731 21.2633 50.464 20.5303 50.464 19.5533C50.464 18.6983 49.731 17.9663 48.875 17.9663C47.411 17.9663 34.218 17.4773 34.218 2.08727C34.218 1.23227 33.485 0.499268 32.63 0.499268C31.775 0.499268 31.043 1.23227 31.043 2.08727C31.043 17.4783 17.85 17.9663 16.385 17.9663C16.262 17.9663 16.262 17.9663 16.262 17.9663C15.407 18.0883 14.797 18.6983 14.797 19.5533C14.797 20.4083 15.53 21.1413 16.385 21.1413C17.973 21.1413 31.043 21.6293 31.043 37.0203C31.043 37.8753 31.775 38.6083 32.63 38.6083C33.363 38.7313 34.096 37.9983 34.096 37.1423C34.096 21.7513 47.287 21.2633 48.754 21.2633H48.875Z" fill="white"/>
</svg>
